General
Complete name                    : Delhi_Belly_ Bhaag DK_Bose-Extended Version 1080p anky.mp4
Format                           : MPEG-4
Format profile                   : Base Media / Version 2
Codec ID                         : mp42
File size                        : 163 MiB
Duration                         : 4mn 9s
Overall bit rate                 : 5 466 Kbps

Video
ID                               : 1
Format                           : AVC
Format/Info                      : Advanced Video Codec
Format profile                   : High@L4.0
Format settings, CABAC           : Yes
Format settings, ReFrames        : 1 frame
Codec ID                         : avc1
Codec ID/Info                    : Advanced Video Coding
Duration                         : 4mn 9s
Bit rate mode                    : Variable
Bit rate                         : 5 310 Kbps
Maximum bit rate                 : 11.5 Mbps
Width                            : 1 920 pixels
Height                           : 1 080 pixels
Display aspect ratio             : 16:9
Frame rate mode                  : Constant
Frame rate                       : 25.000 fps
Resolution                       : 24 bits
Colorimetry                      : 4:2:0
Scan type                        : Progressive
Bits/(Pixel*Frame)               : 0.102
Stream size                      : 158 MiB (97%)
Encoded date                     : UTC 1970-01-01 00:00:00
Tagged date                      : UTC 2011-05-26 13:00:48

Audio
ID                               : 2
Format                           : AAC
Format/Info                      : Advanced Audio Codec
Format version                   : Version 4
Format profile                   : LC
Format settings, SBR             : No
Codec ID                         : 40
Duration                         : 4mn 9s
Bit rate mode                    : Variable
Bit rate                         : 152 Kbps
Maximum bit rate                 : 177 Kbps
Channel(s)                       : 2 channels
Channel positions                : L R
Sampling rate                    : 44.1 KHz
Resolution                       : 16 bits
Stream size                      : 4.52 MiB (3%)
Encoded date                     : UTC 2011-05-26 13:00:46
Tagged date                      : UTC 2011-05-26 13:00:48
